<svg width="29" height="40" viewBox="0 0 29 40" fill="none" xmlns="http://www.w3.org/2000/svg">
<g clip-path="url(#clip0_563_42)">
<path d="M14.3829 39.899L2.98803 36.6943L0.448669 7.84113H28.3513L25.8093 36.6899L14.3829 39.899Z" fill="#264DE4"/>
<path d="M23.6331 34.8528L25.8053 10.2002H14.4V37.446L23.6331 34.8528Z" fill="#2965F1"/>
<path d="M6.27006 20.9015L6.58309 24.4402H14.4V20.9015H6.27006ZM5.64093 13.7391L5.95845 17.2778H14.4V13.7391H5.64093ZM14.4 30.092L14.3847 30.0961L10.4944 29.0319L10.2457 26.2097H6.73916L7.22851 31.766L14.3839 33.7782L14.4 33.7738V30.092Z" fill="#EBEBEB"/>
<path d="M7.01544 0H11.2461V1.79235H8.78469V3.58471H11.2463V5.37695H7.01544V0ZM12.0923 0H16.323V1.55856H13.8616V1.87025H16.323V5.45496H12.0924V3.81828H14.5539V3.50659H12.0922L12.0923 0ZM17.1693 0H21.4V1.55856H18.9385V1.87025H21.4V5.45496H17.1693V3.81828H19.6308V3.50659H17.1694L17.1693 0Z" fill="black"/>
<path d="M22.5076 20.9015L23.1382 13.7391H14.388V17.2778H19.3101L18.9922 20.9015H14.388V24.4402H18.6893L18.2838 29.0297L14.3878 30.095V33.7765L21.549 31.766L21.6015 31.1681L22.4224 21.8518L22.5076 20.9015Z" fill="white"/>
</g>
<defs>
<clipPath id="clip0_563_42">
<rect width="28" height="40" fill="white" transform="translate(0.399994)"/>
</clipPath>
</defs>
</svg>
