<svg width="38" height="37" viewBox="0 0 38 37" fill="none" xmlns="http://www.w3.org/2000/svg">
<g clip-path="url(#clip0_563_51)">
<path d="M31.425 0H10.175C4.99732 0 0.799988 4.19733 0.799988 9.375V30.625C0.799988 35.8027 4.99732 40 10.175 40H31.425C36.6027 40 40.8 35.8027 40.8 30.625V9.375C40.8 4.19733 36.6027 0 31.425 0Z" fill="#F0DB4F"/>
<path d="M11.3175 33.4268L14.3784 31.5743C14.969 32.6214 15.5062 33.5073 16.7948 33.5073C18.03 33.5073 18.8087 33.0242 18.8087 31.1448V18.3639H22.5678V31.1979C22.5678 35.0912 20.2856 36.8634 16.9559 36.8634C13.9489 36.8634 12.2034 35.3061 11.3173 33.4265M24.6095 33.024L27.6701 31.252C28.4759 32.5678 29.5231 33.5343 31.3756 33.5343C32.9333 33.5343 33.9264 32.7556 33.9264 31.6815C33.9264 30.3928 32.9061 29.9362 31.1876 29.1846L30.2481 28.7817C27.5361 27.6273 25.737 26.1773 25.737 23.1164C25.737 20.297 27.8851 18.1489 31.2415 18.1489C33.6312 18.1489 35.3497 18.9814 36.5847 21.1562L33.6579 23.0357C33.0134 21.8812 32.3156 21.4248 31.2415 21.4248C30.1406 21.4248 29.4425 22.1229 29.4425 23.0357C29.4425 24.1634 30.1406 24.62 31.7515 25.3182L32.6912 25.7209C35.8864 27.0904 37.6854 28.4864 37.6854 31.6278C37.6854 35.0112 35.0273 36.8637 31.4562 36.8637C27.9658 36.8637 25.7103 35.199 24.6095 33.024Z" fill="#323330"/>
</g>
<defs>
<clipPath id="clip0_563_51">
<rect width="37" height="37" fill="white" transform="translate(0.799988)"/>
</clipPath>
</defs>
</svg>
