<svg width="51" height="40" viewBox="0 0 51 40" fill="none" xmlns="http://www.w3.org/2000/svg">
<g clip-path="url(#clip0_563_66)">
<path d="M25.3109 35.3125C25.1469 35.3125 24.9828 35.2656 24.8344 35.1875L23.3344 34.2969C23.1078 34.1719 23.2172 34.125 23.2953 34.1016C23.5922 34 23.6547 33.9766 23.975 33.7891C24.0062 33.7735 24.0531 33.7813 24.0844 33.7969L25.2406 34.4844C25.2797 34.5078 25.3422 34.5078 25.3812 34.4844L29.8969 31.875C29.9359 31.8516 29.9672 31.8047 29.9672 31.75V26.5391C29.9672 26.4844 29.9437 26.4375 29.8969 26.4141L25.3812 23.8125C25.3422 23.7891 25.2875 23.7891 25.2406 23.8125L20.725 26.4141C20.6781 26.4375 20.6547 26.4922 20.6547 26.5391V31.75C20.6547 31.7969 20.6859 31.8438 20.725 31.8672L21.9594 32.5781C22.6312 32.9141 23.0453 32.5157 23.0453 32.125V26.9766C23.0453 26.9063 23.1 26.8438 23.1781 26.8438H23.7484C23.8187 26.8438 23.8812 26.8985 23.8812 26.9766V32.125C23.8812 33.0235 23.3969 33.5313 22.5453 33.5313C22.2875 33.5313 22.0765 33.5313 21.5062 33.25L20.3187 32.5703C20.0297 32.3985 19.8422 32.086 19.8422 31.75V26.5391C19.8422 26.2031 20.0219 25.8828 20.3187 25.7188L24.8344 23.1094C25.1234 22.9453 25.4984 22.9453 25.7797 23.1094L30.2953 25.7188C30.5844 25.8907 30.7719 26.2031 30.7719 26.5391V31.75C30.7719 32.086 30.5922 32.4063 30.2953 32.5703L25.7797 35.1797C25.6468 35.2656 25.4828 35.3125 25.3109 35.3125ZM28.9594 30.1719C28.9594 29.1953 28.3031 28.9375 26.9125 28.75C25.5062 28.5625 25.3656 28.4688 25.3656 28.1407C25.3656 27.8672 25.4828 27.5078 26.5219 27.5078C27.4515 27.5078 27.7953 27.711 27.9359 28.336C27.9515 28.3985 27.9984 28.4375 28.0609 28.4375H28.6469C28.6859 28.4375 28.7172 28.4219 28.7406 28.3985C28.764 28.3672 28.7797 28.336 28.7719 28.2969C28.6781 27.2188 27.9672 26.7188 26.5219 26.7188C25.2328 26.7188 24.4672 27.2656 24.4672 28.1719C24.4672 29.1641 25.2328 29.4297 26.4672 29.5547C27.9437 29.7031 28.0609 29.9141 28.0609 30.2031C28.0609 30.711 27.6547 30.9219 26.7015 30.9219C25.5062 30.9219 25.2406 30.625 25.1547 30.0313C25.1468 29.9688 25.0922 29.9219 25.0219 29.9219H24.4359C24.3656 29.9219 24.3031 29.9766 24.3031 30.0547C24.3031 30.8125 24.7172 31.7188 26.6937 31.7188C28.139 31.7188 28.9594 31.1563 28.9594 30.1719ZM33.2172 26.2578C33.2172 26.7344 32.8265 27.125 32.35 27.125C31.8734 27.125 31.4828 26.7344 31.4828 26.2578C31.4828 25.7656 31.889 25.3906 32.35 25.3906C32.8187 25.3828 33.2172 25.7656 33.2172 26.2578ZM33.0765 26.2578C33.0765 25.8516 32.7484 25.5313 32.3422 25.5313C31.9437 25.5313 31.6156 25.8516 31.6156 26.2578C31.6156 26.6641 31.9437 26.9922 32.3422 26.9922C32.7484 26.9844 33.0765 26.6563 33.0765 26.2578ZM32.725 26.7422H32.5219C32.514 26.6953 32.4828 26.4453 32.4828 26.4375C32.4672 26.3828 32.4515 26.3516 32.3812 26.3516H32.2094V26.7422H32.0219V25.7656H32.3578C32.475 25.7656 32.7015 25.7656 32.7015 26.0235C32.7015 26.2031 32.5844 26.2422 32.514 26.2657C32.6469 26.2735 32.6547 26.3594 32.6781 26.4844C32.6859 26.5625 32.7015 26.6953 32.725 26.7422ZM32.5062 26.0547C32.5062 25.9219 32.4125 25.9219 32.3656 25.9219H32.2094V26.1953H32.3578C32.4828 26.1953 32.5062 26.1094 32.5062 26.0547ZM11.3265 14.9219C11.3265 14.711 11.2172 14.5235 11.0375 14.4219L6.24841 11.6641C6.17029 11.6172 6.07654 11.5938 5.98279 11.586H5.93591C5.84216 11.586 5.75623 11.6172 5.67029 11.6641L0.889038 14.4219C0.709351 14.5235 0.599976 14.7188 0.599976 14.9219L0.607788 22.3438C0.607788 22.4453 0.662476 22.5391 0.748413 22.5938C0.834351 22.6485 0.943726 22.6485 1.03748 22.5938L3.88123 20.961C4.06091 20.8516 4.17029 20.6641 4.17029 20.461V16.9922C4.17029 16.7891 4.27966 16.5938 4.45935 16.4922L5.67029 15.7969C5.76404 15.7422 5.85779 15.7188 5.95935 15.7188C6.06091 15.7188 6.16248 15.7422 6.24841 15.7969L7.45935 16.4922C7.63904 16.5938 7.74841 16.7891 7.74841 16.9922V20.461C7.74841 20.6641 7.85779 20.8594 8.03748 20.961L10.8812 22.5938C10.9672 22.6485 11.0844 22.6485 11.1703 22.5938C11.2562 22.5469 11.3109 22.4453 11.3109 22.3438L11.3265 14.9219ZM37.514 6.82034V20.6016C37.514 20.8047 37.4047 21 37.225 21.1016L32.4359 23.8672C32.2562 23.9688 32.0375 23.9688 31.8578 23.8672L27.0687 21.1016C26.889 21 26.7797 20.8047 26.7797 20.6016V15.0703C26.7797 14.8672 26.889 14.6719 27.0687 14.5703L31.8578 11.8047C32.0375 11.7032 32.2562 11.7032 32.4359 11.8047L33.6312 12.4922C33.764 12.5703 33.9359 12.4688 33.9359 12.3203V4.97659C33.9359 4.75784 34.1703 4.61721 34.3656 4.72659L37.2172 6.32034C37.3969 6.41409 37.514 6.6094 37.514 6.82034ZM33.9203 16.8906C33.9203 16.836 33.889 16.7891 33.85 16.7656L32.2094 15.8125C32.1625 15.7891 32.1078 15.7891 32.0609 15.8125L30.4203 16.7656C30.3734 16.7891 30.35 16.836 30.35 16.8906V18.7891C30.35 18.8438 30.3812 18.8906 30.4203 18.9141L32.0609 19.8594C32.1078 19.8828 32.1625 19.8828 32.2015 19.8594L33.8422 18.9141C33.889 18.8906 33.9125 18.8438 33.9125 18.7891V16.8906H33.9203ZM50.3109 16.836C50.4906 16.7344 50.6 16.5391 50.6 16.336V15C50.6 14.7969 50.4906 14.6016 50.3109 14.5L45.5531 11.7344C45.3734 11.6328 45.1547 11.6328 44.975 11.7344L40.1859 14.5C40.0062 14.6016 39.8969 14.7969 39.8969 15V20.5313C39.8969 20.7422 40.0062 20.9297 40.1859 21.0313L44.9437 23.7422C45.1156 23.8438 45.3344 23.8438 45.514 23.7422L48.389 22.1406C48.5844 22.0313 48.5844 21.75 48.389 21.6406L43.5687 18.875C43.475 18.8203 43.4203 18.7266 43.4203 18.625V16.8906C43.4203 16.7891 43.475 16.6953 43.5687 16.6406L45.0687 15.7735C45.1547 15.7188 45.2719 15.7188 45.3578 15.7735L46.8578 16.6406C46.9437 16.6953 47.0062 16.7891 47.0062 16.8906V18.25C47.0062 18.4688 47.2484 18.6094 47.4437 18.5L50.3109 16.836ZM44.2719 17.1094C44.2406 17.1328 44.2172 17.1641 44.2172 17.2031V18.2656C44.2172 18.3047 44.2406 18.3438 44.2719 18.3594L45.1937 18.8906C45.225 18.9141 45.2719 18.9141 45.3031 18.8906L46.225 18.3594C46.2562 18.336 46.2797 18.3047 46.2797 18.2656V17.2031C46.2797 17.1641 46.2562 17.125 46.225 17.1094L45.3031 16.5781C45.2719 16.5547 45.225 16.5547 45.1937 16.5781L44.2719 17.1094ZM24.4125 20.5078V15.0078C24.4125 14.8047 24.2875 14.6094 24.1078 14.5078L19.3344 11.7578C19.1703 11.6641 18.9437 11.6485 18.7562 11.7578L13.9828 14.5078C13.8031 14.6094 13.6781 14.7969 13.6781 15.0078V20.5078C13.6781 20.7266 13.8265 20.9141 13.9906 21.0078L18.7719 23.7578C18.9594 23.8672 19.1781 23.8594 19.35 23.7578L24.1156 21.0078C24.2562 20.9297 24.3578 20.7969 24.3969 20.6407C24.4047 20.6016 24.4125 20.5547 24.4125 20.5078ZM18.6078 10.75L18.5453 10.7891H18.6312L18.6078 10.75ZM24.5609 20.9219L24.5297 20.8672V20.9375L24.5609 20.9219Z" fill="#14AE5C"/>
</g>
<defs>
<clipPath id="clip0_563_66">
<rect width="50" height="40" fill="white" transform="translate(0.599976)"/>
</clipPath>
</defs>
</svg>
