<svg width="41" height="40" viewBox="0 0 41 40" fill="none" xmlns="http://www.w3.org/2000/svg">
<path d="M17.2333 3.33331C15.9691 3.33331 14.7567 3.83551 13.8628 4.72944C12.9688 5.62336 12.4666 6.83578 12.4666 8.09998V10.9H19.6166C20.2666 10.9 20.8 11.85 20.8 12.5H8.89997C7.63577 12.5 6.42335 13.0022 5.52943 13.8961C4.6355 14.79 4.1333 16.0024 4.1333 17.2666V23.5683C4.1333 24.8325 4.6355 26.0449 5.52943 26.9389C6.42335 27.8328 7.63577 28.335 8.89997 28.335H10.8666V23.8683C10.8644 23.2431 10.9857 22.6237 11.2234 22.0454C11.4611 21.4672 11.8107 20.9416 12.252 20.4988C12.6933 20.0559 13.2176 19.7046 13.795 19.4648C14.3724 19.2251 14.9915 19.1016 15.6166 19.1016H24.3666C27 19.1016 29.1333 16.9833 29.1333 14.35V8.09998C29.1333 6.83578 28.6311 5.62336 27.7372 4.72944C26.8433 3.83551 25.6308 3.33331 24.3666 3.33331H17.2333ZM16.0333 6.01665C16.7 6.01665 17.2333 6.21665 17.2333 7.19998C17.2333 8.18331 16.7 8.68498 16.0333 8.68498C15.3833 8.68498 14.85 8.18498 14.85 7.20165C14.85 6.21831 15.3833 6.01665 16.0333 6.01665Z" fill="#0288D1"/>
<path d="M30.7317 11.6667V16.1334C30.7336 16.7584 30.6122 17.3777 30.3744 17.9557C30.1366 18.5337 29.787 19.0591 29.3457 19.5018C28.9045 19.9445 28.3802 20.2957 27.8029 20.5354C27.2256 20.775 26.6067 20.8984 25.9817 20.8984H17.2333C16.6082 20.8962 15.9887 21.0174 15.4105 21.2551C14.8323 21.4929 14.3067 21.8424 13.8638 22.2837C13.421 22.725 13.0696 23.2494 12.8298 23.8268C12.5901 24.4041 12.4667 25.0232 12.4667 25.6484V31.8984C12.4667 33.1626 12.9689 34.375 13.8628 35.2689C14.7567 36.1628 15.9691 36.665 17.2333 36.665H24.3667C25.6306 36.665 26.8428 36.163 27.7366 35.2695C28.6305 34.3759 29.1329 33.1639 29.1333 31.9V29.1H21.9817C21.3317 29.1 20.8 28.15 20.8 27.5H32.7C33.9642 27.5 35.1766 26.9978 36.0705 26.1039C36.9645 25.21 37.4667 23.9976 37.4667 22.7334V16.4334C37.4667 15.1692 36.9645 13.9567 36.0705 13.0628C35.1766 12.1689 33.9642 11.6667 32.7 11.6667H30.7317ZM14.6667 19.1884L14.66 19.195L14.7233 19.1884H14.6667ZM25.5667 31.315C26.2167 31.315 26.75 31.815 26.75 32.7984C26.75 32.9538 26.7194 33.1076 26.6599 33.2512C26.6005 33.3948 26.5133 33.5252 26.4034 33.6351C26.2935 33.745 26.1631 33.8321 26.0195 33.8916C25.8759 33.9511 25.7221 33.9817 25.5667 33.9817C24.9 33.9817 24.3667 33.7817 24.3667 32.7984C24.3667 31.815 24.9 31.315 25.5667 31.315Z" fill="#FDD835"/>
</svg>
