<svg width="41" height="40" viewBox="0 0 41 40" fill="none" xmlns="http://www.w3.org/2000/svg">
<path d="M20.2 15C29.505 15 35.2 18.2375 35.2 20C35.2 21.7625 29.505 25 20.2 25C10.895 25 5.19995 21.7625 5.19995 20C5.19995 18.2375 10.895 15 20.2 15ZM20.2 12.5C10.535 12.5 2.69995 15.8575 2.69995 20C2.69995 24.1425 10.535 27.5 20.2 27.5C29.865 27.5 37.7 24.1425 37.7 20C37.7 15.8575 29.865 12.5 20.2 12.5Z" fill="#00BCD4"/>
<path d="M20.2 17.5C19.7055 17.5 19.2222 17.6466 18.811 17.9213C18.3999 18.196 18.0795 18.5865 17.8903 19.0433C17.701 19.5001 17.6515 20.0028 17.748 20.4877C17.8445 20.9727 18.0826 21.4181 18.4322 21.7678C18.7818 22.1174 19.2273 22.3555 19.7122 22.452C20.1972 22.5484 20.6998 22.4989 21.1567 22.3097C21.6135 22.1205 22.0039 21.8 22.2786 21.3889C22.5533 20.9778 22.7 20.4945 22.7 20C22.7 19.337 22.4366 18.7011 21.9677 18.2322C21.4989 17.7634 20.863 17.5 20.2 17.5Z" fill="#00BCD4"/>
<path d="M13.2724 6.88373C15.7937 6.88373 20.6937 10.855 24.5299 17.5C29.1824 25.5587 29.2262 32.1087 27.6999 32.99C27.5239 33.0813 27.3268 33.1244 27.1287 33.115C24.6074 33.115 19.7062 29.145 15.8699 22.5C11.2174 14.4412 11.1737 7.89123 12.6999 7.00998C12.8764 6.91847 13.0739 6.87409 13.2724 6.88373ZM13.2712 4.38498C12.6341 4.37345 12.0055 4.53179 11.4499 4.84373C7.86244 6.91498 8.87244 15.38 13.7049 23.75C17.8099 30.8625 23.3549 35.6162 27.1299 35.6162C27.7668 35.6268 28.395 35.4676 28.9499 35.155C32.5374 33.085 31.5274 24.62 26.6949 16.25C22.5899 9.13748 17.0449 4.38373 13.2699 4.38373L13.2712 4.38498Z" fill="#00BCD4"/>
<path d="M27.1287 6.88375C27.3268 6.87434 27.5239 6.91746 27.7 7.00875C29.2262 7.89125 29.1825 14.4413 24.53 22.5C20.6925 29.145 15.7925 33.1163 13.2712 33.1163C13.0731 33.1257 12.876 33.0825 12.7 32.9913C11.1737 32.1075 11.2175 25.5575 15.87 17.5C19.7075 10.855 24.6075 6.88375 27.1287 6.88375ZM27.1287 4.38375C23.3537 4.38375 17.81 9.13875 13.7037 16.25C8.87371 24.62 7.86246 33.085 11.45 35.155C12.0053 35.4678 12.6339 35.627 13.2712 35.6163C17.0462 35.6163 22.59 30.8613 26.6962 23.75C31.5262 15.38 32.5375 6.915 28.95 4.845C28.3946 4.5322 27.766 4.37299 27.1287 4.38375Z" fill="#00BCD4"/>
</svg>
