<svg width="41" height="40" viewBox="0 0 41 40" fill="none" xmlns="http://www.w3.org/2000/svg">
<path d="M11.1025 19.07C14.0878 20.1181 17.2367 20.6232 20.4 20.5612C23.5634 20.6228 26.7123 20.1173 29.6975 19.0688C32.0275 18.16 32.8538 17.15 32.8538 16.5688V12.125C32.0389 12.6701 31.165 13.1213 30.2488 13.47C27.0905 14.6007 23.7541 15.152 20.4 15.0975C17.0463 15.1501 13.7103 14.5997 10.5513 13.4725C9.63443 13.124 8.76043 12.6719 7.94626 12.125V16.5625C7.94626 17.155 8.77501 18.16 11.1025 19.07ZM11.1025 27.4513C12.157 27.8535 13.2444 28.1634 14.3525 28.3775C16.3452 28.7622 18.3706 28.9518 20.4 28.9438C22.4294 28.9522 24.4548 28.763 26.4475 28.3787C27.5556 28.1646 28.643 27.8547 29.6975 27.4525C32.0275 26.5437 32.8538 25.5338 32.8538 24.9525V20.715C32.1804 21.1202 31.4727 21.4653 30.7388 21.7462C27.4209 22.9207 23.919 23.4893 20.4 23.425C16.8806 23.4873 13.3787 22.9166 10.0613 21.74C9.32809 21.4573 8.6205 21.1123 7.94626 20.7087V24.95C7.94626 25.5325 8.77501 26.5388 11.1025 27.4513ZM20.4 37.5C27.275 37.5 32.8538 35.32 32.8538 32.6325V29.0862C32.2412 29.4555 31.5995 29.7741 30.935 30.0387L30.7388 30.1175C27.4215 31.2953 23.9196 31.8673 20.4 31.8062C16.8802 31.8701 13.3778 31.298 10.0613 30.1175L9.86501 30.0387C9.20054 29.7741 8.55882 29.4555 7.94626 29.0862V32.6325C7.94626 35.32 13.525 37.5 20.4 37.5Z" fill="#FFDA44"/>
<path d="M20.4 12.235C27.278 12.235 32.8538 10.0557 32.8538 7.3675C32.8538 4.67925 27.278 2.5 20.4 2.5C13.522 2.5 7.94626 4.67925 7.94626 7.3675C7.94626 10.0557 13.522 12.235 20.4 12.235Z" fill="#FFDA44"/>
</svg>
